<svg width="512" height="512" viewBox="0 0 512 512" fill="none" xmlns="http://www.w3.org/2000/svg">
<rect width="512" height="512" rx="145" fill="white"/>
<path d="M131 305.5L251.5 299V392.721C251.5 393.24 251.459 393.757 251.377 394.269L251.344 394.479C250.506 399.733 245.56 403.308 240.308 402.456C238.475 402.158 236.768 401.337 235.392 400.09L131 305.5Z" fill="#46B84B"/>
<rect x="103" y="136" width="306" height="199" rx="99.5" fill="#46B84B"/>
<rect x="245.65" y="171" width="128" height="128" rx="64" fill="white"/>
<path d="M343.65 241.5C345.307 241.5 346.663 242.845 346.53 244.497C346.218 248.395 345.297 252.226 343.796 255.851C341.911 260.4 339.149 264.534 335.667 268.017C332.185 271.499 328.051 274.261 323.501 276.145C318.951 278.03 314.075 279 309.15 279C304.226 279 299.349 278.03 294.8 276.145C290.25 274.261 286.116 271.499 282.634 268.017C279.152 264.534 276.389 260.4 274.505 255.851C273.004 252.226 272.083 248.395 271.77 244.497C271.638 242.845 272.994 241.5 274.65 241.5L309.15 241.5H343.65Z" fill="#58B05C"/>
</svg>
