<svg width="512" height="512" viewBox="0 0 512 512" fill="none" xmlns="http://www.w3.org/2000/svg">
<rect width="512" height="512" rx="145" fill="white"/>
<path d="M102 210.269C102 179.893 126.624 155.269 157 155.269H174.051C183.334 155.269 192.189 151.359 198.442 144.497L202.582 139.953C213.004 128.517 227.761 122 243.234 122H268.827C285.536 122 301.458 129.745 311.896 142.793C318.158 150.622 327.712 155.269 337.737 155.269H355C385.376 155.269 410 179.893 410 210.269V335C410 365.376 385.376 390 355 390H157C126.624 390 102 365.376 102 335V210.269Z" fill="#636363"/>
<circle cx="255.5" cy="269.5" r="78.5" fill="#474747" stroke="white" stroke-width="28"/>
</svg>
