<svg width="512" height="512" viewBox="0 0 512 512" fill="none" xmlns="http://www.w3.org/2000/svg">
<rect width="512" height="512" rx="145" fill="#21B0FF"/>
<path d="M109.22 374.268C100.42 370.619 93.3809 363.58 89.7317 354.78L99.4308 350.758C98.1901 347.766 97.5 344.477 97.5 341V329.375H87V306.125H97.5V282.875H87V259.625H97.5V236.375H87V213.125H97.5V189.875H87V166.625H97.5V155C97.5 151.523 98.1901 148.234 99.4308 145.242L89.7317 141.22C93.3809 132.42 100.42 125.381 109.22 121.732L113.242 131.431C116.234 130.19 119.523 129.5 123 129.5H134V119H156V129.5H178V119H200V129.5H222V119H244V129.5H266V119H288V129.5H310V119H332V129.5H354V119H376V129.5H387C390.477 129.5 393.766 130.19 396.758 131.431L400.78 121.732C409.58 125.381 416.619 132.42 420.268 141.22L410.569 145.242C411.81 148.234 412.5 151.523 412.5 155V166.1H423V188.3H412.5V210.5H423V232.7H412.5V254.9H423V277.1H412.5V299.3H423V321.5H412.5V343.7H423V365.9H412.5V366.5H410.5V377H385.5V366.5H360.5V377H335.5V366.5H310.5V377H285.5V366.5H260.5V377H235.5V366.5H210.5V377H185.5V366.5H160.5V377H135.5V366.5H123C119.523 366.5 116.234 365.81 113.242 364.569L109.22 374.268Z" fill="white" fill-opacity="0.3" stroke="white" stroke-width="21" stroke-dasharray="24 24"/>
<rect x="411" y="337" width="12" height="73" fill="white"/>
<rect x="381" y="377" width="12" height="73" transform="rotate(-90 381 377)" fill="white"/>
</svg>
