<svg width="512" height="512" viewBox="0 0 512 512" fill="none" xmlns="http://www.w3.org/2000/svg">
<rect width="512" height="512" rx="145" fill="#21ACFF"/>
<path d="M124.454 121.875C126.063 103.166 142.51 89.5532 161.19 91.4692L376.3 113.533C394.98 115.449 408.819 132.169 407.21 150.878L401.427 218.133L118.672 189.131L124.454 121.875Z" fill="#FF5968"/>
<path d="M118.672 189.131L401.427 218.133L386.326 393.767C384.907 410.275 370.395 422.287 353.912 420.596L130.843 397.716C114.361 396.025 102.151 381.272 103.57 364.765L118.672 189.131Z" fill="white"/>
<path d="M240.304 137.915C243.217 138.189 245.803 138.909 248.059 140.075C250.316 141.241 252.111 142.65 253.445 144.302C254.096 145.088 254.047 145.809 253.299 146.464L251.442 147.95C250.697 148.567 249.94 148.496 249.172 147.736C246.394 144.804 243.227 143.171 239.67 142.837C237.287 142.613 235.23 142.973 233.5 143.917C231.808 144.865 230.875 146.266 230.701 148.12C230.584 149.369 230.88 150.484 231.589 151.467C232.336 152.453 233.742 153.329 235.808 154.096L243.88 157.144C250.375 159.51 253.369 163.398 252.861 168.808C252.566 171.948 250.965 174.565 248.059 176.658C245.19 178.755 241.316 179.574 236.435 179.116C232.841 178.779 229.816 177.865 227.361 176.375C224.905 174.884 223.058 173.222 221.818 171.388C221.146 170.409 221.238 169.636 222.093 169.067L224.466 167.572C225.238 167.072 225.926 167.271 226.528 168.167C229.132 171.732 232.686 173.726 237.188 174.149C240.025 174.415 242.278 173.997 243.947 172.894C245.653 171.795 246.586 170.394 246.746 168.691C246.892 167.14 246.481 165.823 245.514 164.74C244.585 163.66 243.05 162.734 240.909 161.96L233.053 159.047C226.997 156.875 224.216 153.16 224.71 147.901C225.023 144.572 226.641 141.976 229.564 140.113C232.487 138.25 236.067 137.517 240.304 137.915ZM262.625 140.756L289.638 143.293C289.903 143.318 290.138 143.454 290.344 143.702C290.55 143.951 290.64 144.207 290.615 144.472L290.328 147.537C290.303 147.801 290.166 148.037 289.918 148.242C289.669 148.448 289.413 148.539 289.148 148.514L266.788 146.414L265.669 158.331L277.19 159.413C277.908 159.481 278.234 159.874 278.167 160.593L277.895 163.487C277.866 163.79 277.728 164.044 277.48 164.25C277.269 164.459 277.013 164.549 276.71 164.521L265.19 163.439L264.038 175.697L286.625 177.818C286.89 177.843 287.125 177.98 287.331 178.228C287.536 178.476 287.627 178.733 287.602 178.998L287.314 182.062C287.289 182.327 287.153 182.562 286.904 182.768C286.656 182.974 286.4 183.064 286.135 183.039L258.895 180.481C258.63 180.456 258.393 180.338 258.183 180.128C258.016 179.883 257.946 179.609 257.974 179.307L261.502 141.738C261.531 141.435 261.649 141.198 261.855 141.027C262.104 140.821 262.36 140.731 262.625 140.756ZM298.786 183.139C298.761 183.404 298.624 183.64 298.376 183.845C298.165 184.054 297.909 184.145 297.606 184.116L294.031 183.781C293.766 183.756 293.529 183.638 293.32 183.428C293.152 183.183 293.082 182.909 293.111 182.607L296.639 145.038C296.667 144.735 296.785 144.498 296.992 144.327C297.24 144.121 297.497 144.031 297.762 144.056L312.063 145.399C316.527 145.818 319.856 147.352 322.05 150.001C324.282 152.653 325.229 155.776 324.892 159.37C324.513 162.999 322.997 165.929 320.345 168.161C317.696 170.355 314.139 171.242 309.675 170.823L300.028 169.917L298.786 183.139ZM300.502 164.866L309.866 165.745C312.287 165.973 314.356 165.48 316.073 164.267C317.828 163.058 318.819 161.243 319.046 158.821C319.27 156.438 318.633 154.489 317.134 152.974C315.673 151.463 313.731 150.593 311.31 150.366L301.946 149.487L300.502 164.866Z" fill="white"/>
<path d="M262 358.876L191.397 352.245C190.658 352.176 190.002 351.795 189.428 351.102C188.854 350.41 188.602 349.694 188.671 348.955L189.296 342.306C189.464 340.512 190.414 338.898 192.146 337.464L227.725 310.622C236.535 304.103 243.029 298.431 247.209 293.607C251.398 288.677 253.745 283.521 254.251 278.139C254.816 272.123 253.209 267.128 249.43 263.153C245.661 259.073 240.716 256.745 234.595 256.171C228.263 255.576 222.908 257.043 218.531 260.571C214.154 264.099 210.806 268.576 208.486 274C207.374 276.771 205.644 277.62 203.296 276.547L196.336 274.137C194.381 273.421 193.723 271.922 194.363 269.64C196.98 261.049 202.043 254.178 209.554 249.028C217.074 243.772 225.953 241.625 236.19 242.586C246.955 243.597 255.484 247.432 261.779 254.092C268.18 260.762 270.919 269.004 269.997 278.819C269.353 285.679 266.555 292.23 261.604 298.472C256.758 304.725 249.021 311.717 238.394 319.449L210.405 340.296L263.278 345.262C264.017 345.331 264.626 345.654 265.104 346.232C265.687 346.819 265.94 347.535 265.86 348.379L265.132 356.136C265.053 356.98 264.667 357.689 263.974 358.263C263.397 358.741 262.739 358.945 262 358.876ZM280.59 272.467L281.244 265.502C281.432 263.497 282.529 262.589 284.534 262.777L286.751 262.985C295.299 263.788 301.119 260.768 304.21 253.925C305.233 252.104 306.641 251.278 308.435 251.447L313.818 251.952C314.662 252.032 315.323 252.36 315.801 252.937C316.279 253.514 316.479 254.225 316.4 255.069L306.543 360.025C306.474 360.763 306.093 361.42 305.4 361.993C304.707 362.567 303.992 362.819 303.253 362.75L294.229 361.903C293.385 361.823 292.676 361.437 292.102 360.745C291.634 360.062 291.435 359.351 291.504 358.612L299.175 276.928L283.187 275.426C281.287 275.248 280.421 274.262 280.59 272.467Z" fill="black"/>
</svg>
