<svg width="512" height="512" viewBox="0 0 512 512" fill="none" xmlns="http://www.w3.org/2000/svg">
<rect x="14" y="14" width="484" height="484" rx="131" fill="#7E7E7E"/>
<rect x="225.305" y="224.609" width="61.0617" height="58.6667" rx="29.3333" stroke="white" stroke-width="12"/>
<path d="M159.476 173.32C157.508 171.416 157.508 168.331 159.476 166.427C161.444 164.524 164.634 164.524 166.602 166.427L233.11 230.755C235.077 232.658 235.077 235.744 233.11 237.647C231.142 239.551 227.951 239.551 225.984 237.647L159.476 173.32Z" fill="white"/>
<path d="M258.525 370.658C258.44 373.1 256.325 375.12 253.799 375.169C251.274 375.218 249.295 373.278 249.38 370.836L252.234 288.307C252.318 285.865 254.434 283.846 256.959 283.797C259.485 283.748 261.463 285.687 261.379 288.129L258.525 370.658Z" fill="white"/>
<path d="M286.016 238.065C284.049 239.969 280.858 239.969 278.89 238.065C276.923 236.162 276.923 233.076 278.89 231.173L345.398 166.845C347.366 164.942 350.556 164.942 352.524 166.845C354.492 168.749 354.492 171.834 352.524 173.738L286.016 238.065Z" fill="white"/>
<rect x="14" y="14" width="484" height="484" rx="131" stroke="#909090" stroke-width="28"/>
</svg>
