<svg width="512" height="512" viewBox="0 0 512 512" fill="none" xmlns="http://www.w3.org/2000/svg">
<rect width="512" height="512" rx="145" fill="white"/>
<path d="M236.059 132.991C238.884 121.173 250.755 113.884 262.572 116.71L312.174 128.57C323.991 131.395 331.28 143.265 328.454 155.083L279.62 359.325C276.794 371.143 264.924 378.432 253.107 375.606L203.505 363.746C191.688 360.921 184.399 349.051 187.224 337.234L236.059 132.991Z" fill="#EDEDED"/>
<path d="M290.291 146.986C291.062 143.763 294.299 141.775 297.522 142.546L306.275 144.639C309.498 145.409 311.486 148.647 310.715 151.869L306.762 168.403C305.991 171.626 302.754 173.614 299.531 172.844L290.778 170.751C287.555 169.98 285.567 166.743 286.338 163.52L290.291 146.986Z" fill="#AAAAAA"/>
<path d="M290.291 146.986C291.062 143.763 294.299 141.775 297.522 142.546L306.275 144.639C309.498 145.409 311.486 148.647 310.715 151.869L306.762 168.403C305.991 171.626 302.754 173.614 299.531 172.844L290.778 170.751C287.555 169.98 285.567 166.743 286.338 163.52L290.291 146.986Z" fill="#AAAAAA"/>
<path d="M253.333 138.149C254.103 134.926 257.341 132.938 260.564 133.709L269.317 135.802C272.54 136.572 274.528 139.81 273.757 143.032L269.804 159.566C269.033 162.789 265.796 164.777 262.573 164.007L253.82 161.914C250.597 161.143 248.609 157.906 249.379 154.683L253.333 138.149Z" fill="#AAAAAA"/>
<path d="M253.333 138.149C254.103 134.926 257.341 132.938 260.564 133.709L269.317 135.802C272.54 136.572 274.528 139.81 273.757 143.032L269.804 159.566C269.033 162.789 265.796 164.777 262.573 164.007L253.82 161.914C250.597 161.143 248.609 157.906 249.379 154.683L253.333 138.149Z" fill="#AAAAAA"/>
<path d="M195.529 177.794C198.354 165.977 210.225 158.687 222.042 161.513L329.026 187.093C340.843 189.919 348.132 201.789 345.307 213.606L304.146 385.754C301.321 397.571 289.45 404.86 277.633 402.034L170.649 376.454C158.832 373.629 151.543 361.759 154.368 349.941L195.529 177.794Z" fill="#0098ED"/>
</svg>
