<svg width="512" height="512" viewBox="0 0 512 512" fill="none" xmlns="http://www.w3.org/2000/svg">
<rect width="512" height="512" rx="145" fill="#FF5968"/>
<path d="M356.119 278.475C356.119 347.248 298.785 403 228.059 403C157.334 403 100 347.248 100 278.475C100 209.702 157.334 153.95 228.059 153.95C298.785 153.95 356.119 209.702 356.119 278.475ZM167.868 278.475C167.868 310.8 194.817 337.005 228.059 337.005C261.302 337.005 288.251 310.8 288.251 278.475C288.251 246.15 261.302 219.945 228.059 219.945C194.817 219.945 167.868 246.15 167.868 278.475Z" fill="white"/>
<rect width="97.6507" height="68.0751" rx="19" transform="matrix(0.986138 -0.165926 0.187728 0.982221 302.923 124.203)" fill="#FFCCCC"/>
<path d="M283.319 139.056C283.319 132.744 287.852 127.344 294.069 126.252L355.742 115.412L355.742 273.683L283.319 220.381L283.319 139.056Z" fill="white"/>
</svg>
