<svg width="512" height="512" viewBox="0 0 512 512" fill="none" xmlns="http://www.w3.org/2000/svg">
<rect width="512" height="512" rx="145" fill="white"/>
<rect x="123.761" y="69.1978" width="308" height="344" rx="43" transform="rotate(5.92067 123.761 69.1978)" fill="#21ACFF"/>
<rect x="216.837" y="115.043" width="113.254" height="112.646" rx="56.3232" transform="rotate(5.92067 216.837 115.043)" fill="white"/>
<path d="M327.594 377.423C353.666 380.126 377.892 360.403 369.827 335.463C364.911 320.262 356.866 306.078 346.151 293.723C335.436 281.367 322.261 271.081 307.378 263.453C292.495 255.824 276.196 251.001 259.411 249.261C242.626 247.52 225.684 248.895 209.553 253.308C193.421 257.72 178.416 265.084 165.394 274.977C152.371 284.871 141.587 297.102 133.656 310.971C120.645 333.725 140.308 358 166.38 360.704L246.987 369.063L327.594 377.423Z" fill="white"/>
</svg>
