<svg width="512" height="512" viewBox="0 0 512 512" fill="none" xmlns="http://www.w3.org/2000/svg">
<rect width="512" height="512" rx="145" fill="#00A4FF"/>
<rect x="94.9841" y="118.53" width="263" height="329" rx="22" transform="rotate(-10.735 94.9841 118.53)" fill="white"/>
<rect x="136.026" y="152.479" width="194" height="8" rx="4" transform="rotate(-10.735 136.026 152.479)" fill="#E3E3E3"/>
<rect x="136.026" y="152.479" width="194" height="8" rx="4" transform="rotate(-10.735 136.026 152.479)" fill="#E3E3E3"/>
<rect x="145.526" y="202.587" width="194" height="8" rx="4" transform="rotate(-10.735 145.526 202.587)" fill="#E3E3E3"/>
<rect x="145.526" y="202.587" width="194" height="8" rx="4" transform="rotate(-10.735 145.526 202.587)" fill="#E3E3E3"/>
<rect x="155.025" y="252.695" width="194" height="8" rx="4" transform="rotate(-10.735 155.025 252.695)" fill="#E3E3E3"/>
<rect x="155.025" y="252.695" width="194" height="8" rx="4" transform="rotate(-10.735 155.025 252.695)" fill="#E3E3E3"/>
<rect x="164.525" y="302.802" width="194" height="8" rx="4" transform="rotate(-10.735 164.525 302.802)" fill="#E3E3E3"/>
<rect x="164.525" y="302.802" width="194" height="8" rx="4" transform="rotate(-10.735 164.525 302.802)" fill="#E3E3E3"/>
<path d="M256.237 403.112L242.933 381.441L200.051 389.571L195.738 414.581C195.394 416.25 194.63 417.196 193.447 417.421L184.023 419.207C183.204 419.363 182.506 419.165 181.93 418.614C181.445 418.045 181.298 417.272 181.49 416.292L199.278 319.828C199.696 318.052 200.679 317.016 202.227 316.723L214.927 314.315C216.566 314.004 217.905 314.599 218.944 316.1L270.779 399.223C271.333 400.155 271.443 400.983 271.109 401.707C270.865 402.413 270.334 402.844 269.515 402.999L259.409 404.915C258.134 405.157 257.077 404.556 256.237 403.112ZM210.544 330.001L202.246 377.271L236.388 370.798L211.091 329.897L210.544 330.001ZM284.143 392.162C276.635 386.889 271.941 379.29 270.06 369.366C268.178 359.442 269.82 350.69 274.985 343.108C280.15 335.527 287.193 330.89 296.116 329.199C301.032 328.267 305.664 328.568 310.01 330.102C314.448 331.618 317.913 333.979 320.407 337.185L318.957 329.537C318.819 328.809 318.935 328.174 319.304 327.632C319.746 326.983 320.332 326.589 321.06 326.451L329.118 324.923C329.846 324.785 330.49 324.946 331.049 325.406C331.59 325.775 331.93 326.323 332.068 327.052L343.331 386.459C343.469 387.187 343.308 387.83 342.848 388.389C342.479 388.931 341.976 389.262 341.338 389.383L333.281 390.91C332.553 391.048 331.872 390.942 331.239 390.59C330.681 390.13 330.341 389.581 330.22 388.944L328.744 381.16C327.505 385.073 325.144 388.539 321.661 391.557C318.16 394.484 313.906 396.423 308.899 397.372C299.976 399.064 291.724 397.327 284.143 392.162ZM286.39 350.284C283.269 355.214 282.295 360.774 283.469 366.966C284.643 373.157 287.593 378.021 292.319 381.557C297.028 385.003 302.341 386.165 308.259 385.043C314.177 383.921 318.688 380.85 321.792 375.828C324.895 370.807 325.869 365.246 324.712 359.146C323.539 352.955 320.597 348.137 315.888 344.691C311.179 341.245 305.866 340.083 299.948 341.205C294.03 342.327 289.511 345.353 286.39 350.284Z" fill="black"/>
<path d="M354.714 256.977C350.438 261.3 344.783 263.988 338.731 264.573L294.836 268.816C288.412 269.437 283.442 263.294 285.39 257.142L299.174 213.594C300.716 208.724 303.658 204.417 307.632 201.208L332.276 181.318C345.218 170.872 364.504 175.095 371.896 189.994L380.035 206.397C384.972 216.349 383.041 228.338 375.229 236.237L354.714 256.977Z" fill="url(#paint0_linear_6_37)"/>
<path d="M354.768 258.27C353.461 259.328 351.961 260.123 350.353 260.613L338.601 264.191C337.77 264.444 336.897 263.944 336.695 263.099L336.287 261.394C331.588 241.771 318.032 225.447 299.605 217.225C298.835 216.881 298.528 215.95 298.943 215.216L305.041 204.433C305.826 203.044 306.866 201.816 308.106 200.813L392.47 132.549C397.622 128.38 405.178 129.177 409.347 134.329L440.81 173.212C444.978 178.364 444.181 185.92 439.029 190.089L354.768 258.27Z" fill="url(#paint1_linear_6_37)"/>
<path d="M288.894 269.255C285.42 269.491 282.765 266.21 283.72 262.862L285.962 255.351L296.707 268.63L288.894 269.255Z" fill="#545454"/>
<defs>
<linearGradient id="paint0_linear_6_37" x1="313.24" y1="244.266" x2="421.449" y2="156.707" gradientUnits="userSpaceOnUse">
<stop stop-color="#FFEEAF"/>
<stop offset="1" stop-color="white"/>
</linearGradient>
<linearGradient id="paint1_linear_6_37" x1="329.509" y1="231.101" x2="439.677" y2="277.801" gradientUnits="userSpaceOnUse">
<stop stop-color="#545454"/>
<stop offset="1" stop-color="#545454"/>
</linearGradient>
</defs>
</svg>
