<svg width="512" height="512" viewBox="0 0 512 512" fill="none" xmlns="http://www.w3.org/2000/svg">
<g clip-path="url(#clip0_11_84)">
<rect width="512" height="512" rx="145" fill="white"/>
<rect x="27.1304" y="160" width="2.30723" height="192" fill="black"/>
<rect x="92.0624" y="160" width="2.30723" height="192" fill="black"/>
<rect x="-35" y="289.708" width="2.31325" height="191.5" transform="rotate(-90 -35 289.708)" fill="black"/>
<rect x="-35" y="224.606" width="2.31325" height="191.5" transform="rotate(-90 -35 224.606)" fill="black"/>
<rect x="154" y="-35" width="7" height="581" fill="#EFEFEF"/>
<rect x="351" y="-35" width="7" height="581" fill="#EFEFEF"/>
<rect x="-34.5" y="357.5" width="7" height="581" transform="rotate(-90 -34.5 357.5)" fill="#EFEFEF"/>
<rect x="-34.5" y="160.5" width="7" height="581" transform="rotate(-90 -34.5 160.5)" fill="#EFEFEF"/>
<rect x="27.6304" y="-35" width="2.30723" height="192" fill="#EFEFEF"/>
<rect x="92.5624" y="-35" width="2.30723" height="192" fill="#EFEFEF"/>
<rect x="-34.5" y="94.7075" width="2.31325" height="191.5" transform="rotate(-90 -34.5 94.7075)" fill="#EFEFEF"/>
<rect x="-34.5" y="29.606" width="2.31325" height="191.5" transform="rotate(-90 -34.5 29.606)" fill="#EFEFEF"/>
<rect x="223.13" y="-35" width="2.30723" height="192" fill="#EFEFEF"/>
<rect x="288.062" y="-35" width="2.30723" height="192" fill="#EFEFEF"/>
<rect x="161" y="94.7075" width="2.31325" height="191.5" transform="rotate(-90 161 94.7075)" fill="#EFEFEF"/>
<rect x="161" y="29.606" width="2.31325" height="191.5" transform="rotate(-90 161 29.606)" fill="#EFEFEF"/>
<rect x="418.63" y="-35" width="2.30723" height="192" fill="#EFEFEF"/>
<rect x="483.562" y="-35" width="2.30723" height="192" fill="#EFEFEF"/>
<rect x="356.5" y="94.7075" width="2.31325" height="191.5" transform="rotate(-90 356.5 94.7075)" fill="#EFEFEF"/>
<rect x="356.5" y="29.606" width="2.31325" height="191.5" transform="rotate(-90 356.5 29.606)" fill="#EFEFEF"/>
<rect x="222.13" y="160" width="2.30723" height="192" fill="#EFEFEF"/>
<rect x="287.062" y="160" width="2.30723" height="192" fill="#EFEFEF"/>
<rect x="160" y="289.708" width="2.31325" height="191.5" transform="rotate(-90 160 289.708)" fill="#EFEFEF"/>
<rect x="160" y="224.606" width="2.31325" height="191.5" transform="rotate(-90 160 224.606)" fill="#EFEFEF"/>
<rect x="25.6304" y="355" width="2.30723" height="192" fill="#EFEFEF"/>
<rect x="90.5624" y="355" width="2.30723" height="192" fill="#EFEFEF"/>
<rect x="-36.5" y="484.708" width="2.31325" height="191.5" transform="rotate(-90 -36.5 484.708)" fill="#EFEFEF"/>
<rect x="-36.5" y="419.606" width="2.31325" height="191.5" transform="rotate(-90 -36.5 419.606)" fill="#EFEFEF"/>
<rect x="221.13" y="355" width="2.30723" height="192" fill="#EFEFEF"/>
<rect x="286.062" y="355" width="2.30723" height="192" fill="#EFEFEF"/>
<rect x="159" y="484.708" width="2.31325" height="191.5" transform="rotate(-90 159 484.708)" fill="#EFEFEF"/>
<rect x="159" y="419.606" width="2.31325" height="191.5" transform="rotate(-90 159 419.606)" fill="#EFEFEF"/>
<rect x="416.63" y="355" width="2.30723" height="192" fill="#EFEFEF"/>
<rect x="481.562" y="355" width="2.30723" height="192" fill="#EFEFEF"/>
<rect x="354.5" y="484.708" width="2.31325" height="191.5" transform="rotate(-90 354.5 484.708)" fill="#EFEFEF"/>
<rect x="354.5" y="419.606" width="2.31325" height="191.5" transform="rotate(-90 354.5 419.606)" fill="#EFEFEF"/>
<rect x="417.13" y="160" width="2.30723" height="192" fill="#EFEFEF"/>
<rect x="482.062" y="160" width="2.30723" height="192" fill="#EFEFEF"/>
<rect x="355" y="289.708" width="2.31325" height="191.5" transform="rotate(-90 355 289.708)" fill="#EFEFEF"/>
<rect x="355" y="224.606" width="2.31325" height="191.5" transform="rotate(-90 355 224.606)" fill="#EFEFEF"/>
</g>
<defs>
<clipPath id="clip0_11_84">
<rect width="512" height="512" rx="145" fill="white"/>
</clipPath>
</defs>
</svg>
