<svg width="512" height="512" viewBox="0 0 512 512" fill="none" xmlns="http://www.w3.org/2000/svg">
<rect width="512" height="512" rx="145" fill="#008BDE"/>
<path d="M91.2119 239.018C86.0112 217.614 102.224 196.99 124.251 196.99H388.238C410.11 196.99 426.293 217.342 421.364 238.652L388.846 379.239C384.546 397.833 367.985 411 348.901 411H165.231C146.316 411 129.856 398.06 125.39 379.68L91.2119 239.018Z" fill="white"/>
<rect x="191" y="111" width="130" height="176.197" rx="65" stroke="white" stroke-width="22"/>
<path fill-rule="evenodd" clip-rule="evenodd" d="M310.434 279.657C314.138 289.347 302.48 300.39 306.341 310.019C308.16 314.557 312.059 318.712 311.259 323.535C310.312 329.24 307.887 334.553 304.299 338.971C297.758 347.024 282.366 342.449 275.957 350.607C272.937 354.451 271.288 359.906 266.711 361.624C261.297 363.656 255.483 364.213 249.863 363.314C239.619 361.676 235.885 346.059 225.615 344.588C220.776 343.895 215.227 345.194 211.451 342.089C206.984 338.417 203.595 333.66 201.563 328.344C197.859 318.653 209.517 307.61 205.657 297.981C203.837 293.444 199.938 289.288 200.739 284.465C201.686 278.761 204.11 273.447 207.699 269.029C214.24 260.976 229.631 265.551 236.04 257.393C239.06 253.549 240.71 248.094 245.287 246.376C250.7 244.344 256.514 243.787 262.134 244.686C272.379 246.324 276.113 261.941 286.382 263.412C291.222 264.105 296.77 262.807 300.547 265.911C305.013 269.583 308.402 274.34 310.434 279.657Z" fill="#008BDE"/>
<rect x="226.333" y="274" width="60.3333" height="60.3333" rx="30.1667" stroke="white" stroke-width="10"/>
</svg>
