<svg width="512" height="512" viewBox="0 0 512 512" fill="none" xmlns="http://www.w3.org/2000/svg">
<rect width="512" height="512" rx="145" fill="#E2E2E2"/>
<rect x="86" y="102" width="341" height="39" rx="19.5" fill="#A9A9A9"/>
<rect x="261" y="169" width="166" height="39" rx="19.5" fill="#A9A9A9"/>
<rect x="86" y="169" width="151" height="106" rx="53" fill="#A9A9A9"/>
<rect x="261" y="236" width="166" height="39" rx="19.5" fill="#A9A9A9"/>
<rect x="195" y="303" width="232" height="39" rx="19.5" fill="#A9A9A9"/>
<rect x="86" y="303" width="91" height="39" rx="19.5" fill="#A9A9A9"/>
<rect x="86" y="370" width="341" height="39" rx="19.5" fill="#A9A9A9"/>
<path d="M137.856 206.678C140.256 203.743 144.744 203.743 147.144 206.678L171.292 236.201C174.496 240.119 171.709 246 166.647 246H118.353C113.291 246 110.504 240.119 113.708 236.201L137.856 206.678Z" fill="#D9D9D9"/>
<path d="M166.583 197.619C169.782 193.322 176.218 193.322 179.417 197.619L205.923 233.223C209.852 238.5 206.085 246 199.506 246H146.494C139.915 246 136.148 238.5 140.077 233.223L166.583 197.619Z" fill="#D9D9D9"/>
</svg>
