<svg width="512" height="512" viewBox="0 0 512 512" fill="none" xmlns="http://www.w3.org/2000/svg">
<rect width="512" height="512" rx="145" fill="#39E440"/>
<path d="M271.249 142C271.249 133.715 264.533 127 256.249 127C247.965 127 241.249 133.715 241.249 142H271.249ZM245.642 379.607C251.5 385.465 260.998 385.465 266.856 379.607L362.315 284.148C368.173 278.29 368.173 268.793 362.315 262.935C356.457 257.077 346.96 257.077 341.102 262.935L256.249 347.788L171.396 262.935C165.538 257.077 156.041 257.077 150.183 262.935C144.325 268.793 144.325 278.29 150.183 284.148L245.642 379.607ZM241.249 142L241.249 369.001H271.249L271.249 142H241.249Z" fill="white"/>
</svg>
