<svg width="512" height="512" viewBox="0 0 512 512" fill="none" xmlns="http://www.w3.org/2000/svg">
<rect width="512" height="512" rx="145" fill="#21ACFF"/>
<path d="M427 253.5C427 348.217 350.217 425 255.5 425C160.783 425 84 348.217 84 253.5C84 158.783 160.783 82 255.5 82C350.217 82 427 158.783 427 253.5ZM154.388 253.5C154.388 309.343 199.657 354.612 255.5 354.612C311.343 354.612 356.612 309.343 356.612 253.5C356.612 197.657 311.343 152.388 255.5 152.388C199.657 152.388 154.388 197.657 154.388 253.5Z" fill="white"/>
<rect x="225" y="75" width="61" height="89" rx="14" fill="#FF5968"/>
<rect x="225" y="347" width="61" height="89" rx="14" fill="#FF5968"/>
<rect x="75" y="284" width="61" height="89" rx="14" transform="rotate(-90 75 284)" fill="#FF5968"/>
<rect x="347" y="284" width="61" height="89" rx="14" transform="rotate(-90 347 284)" fill="#FF5968"/>
</svg>
