<svg width="512" height="512" viewBox="0 0 512 512" fill="none" xmlns="http://www.w3.org/2000/svg">
<rect width="512" height="512" rx="145" fill="#DADADA"/>
<circle cx="256" cy="256" r="185" fill="black"/>
<path d="M418 256C418 229.037 411.492 202.484 399.046 178.666C386.6 154.847 368.595 134.489 346.606 119.372L255.5 256H418Z" fill="#FFD745"/>
<path d="M347.24 119.81C329.037 107.168 308.491 98.4205 286.852 94.1002C265.214 89.7798 242.935 89.977 221.374 94.6795C199.812 99.3821 179.419 108.492 161.437 121.454C143.454 134.416 128.257 150.958 116.773 170.075C105.289 189.191 97.7566 210.481 94.6356 232.649C91.5145 254.816 92.8698 277.396 98.6188 299.014C104.368 320.632 114.39 340.836 128.076 358.395C141.762 375.954 158.824 390.5 178.224 401.149L255.5 256L347.24 119.81Z" fill="#64C8FF"/>
<path d="M169.461 395.974C193.457 411.181 220.946 419.765 249.21 420.876C277.474 421.988 305.534 415.59 330.616 402.313L255.5 256L169.461 395.974Z" fill="#4DCA52"/>
<path d="M303.777 413.55C336.957 403.068 365.954 382.062 386.511 353.616C407.069 325.17 418.105 290.781 417.999 255.498L255.5 256L303.777 413.55Z" fill="#0098ED"/>
<circle cx="91" cy="421" r="20" fill="#C6C6C6"/>
<circle cx="421" cy="421" r="20" fill="#C6C6C6"/>
<circle cx="421" cy="91" r="20" fill="#C6C6C6"/>
<circle cx="91" cy="91" r="20" fill="#C6C6C6"/>
</svg>
