<svg width="512" height="512" viewBox="0 0 512 512" fill="none" xmlns="http://www.w3.org/2000/svg">
<rect width="512" height="512" rx="145" fill="white"/>
<path d="M438.192 191.384C429.648 171.481 412.317 149.992 398.745 143.199C408.423 161.343 415.14 180.828 418.659 200.962L418.694 201.281C396.462 147.644 358.776 125.984 327.979 78.8798C326.422 76.4976 324.864 74.1105 323.347 71.5907C322.48 70.1516 321.784 68.8549 321.181 67.6613C319.904 65.2671 318.919 62.7368 318.248 60.1218C318.249 60.0011 318.204 59.8843 318.122 59.7937C318.039 59.7031 317.925 59.6451 317.802 59.6306C317.68 59.5984 317.553 59.5984 317.431 59.6306C317.406 59.6306 317.365 59.6748 317.335 59.6846C317.305 59.6944 317.239 59.7386 317.193 59.7583L317.269 59.6306C267.878 87.6276 251.11 139.447 249.588 165.381C229.857 166.69 210.991 173.727 195.453 185.573C193.833 184.244 192.139 183.001 190.38 181.85C185.9 166.667 185.709 150.599 189.827 135.321C171.688 143.827 155.571 155.886 142.496 170.735H142.404C134.611 161.171 135.159 129.638 135.606 123.051C133.3 123.948 131.1 125.079 129.041 126.426C122.161 131.179 115.73 136.513 109.822 142.364C103.09 148.972 96.9411 156.114 91.4405 163.716V163.745V163.711C78.7999 181.057 69.8333 200.656 65.0581 221.375L64.7942 222.632C64.4239 224.307 63.0895 232.697 62.8612 234.519C62.8612 234.661 62.8308 234.794 62.8156 234.936C61.0943 243.597 60.0278 252.369 59.6243 261.18V262.162C59.7112 309.799 78.2421 355.674 111.559 390.73C144.876 425.786 190.557 447.476 239.586 451.519C288.614 455.562 337.427 441.663 376.388 412.567C415.349 383.47 441.626 341.29 450.034 294.354C450.363 291.898 450.632 289.467 450.926 286.986C454.977 254.578 450.592 221.704 438.172 191.354L438.192 191.384ZM211.557 340.407C212.475 340.834 213.337 341.296 214.281 341.703L214.418 341.787C213.464 341.345 212.51 340.885 211.557 340.407ZM418.699 201.335V201.153L418.735 201.355L418.699 201.335Z" fill="url(#paint0_linear_1_314)"/>
<path d="M438.191 191.384C429.648 171.481 412.316 149.992 398.745 143.199C408.423 161.343 415.14 180.828 418.658 200.962V201.143L418.694 201.345C433.853 243.336 431.66 289.374 412.575 329.836C390.038 376.65 335.508 424.633 250.12 422.276C157.883 419.746 76.6051 353.462 61.4352 266.671C58.6701 252.982 61.4352 246.042 62.8253 234.917C60.9291 243.558 59.8709 252.352 59.6645 261.185V262.167C59.7514 309.804 78.2823 355.678 111.599 390.735C144.916 425.791 190.597 447.481 239.626 451.524C288.655 455.567 337.467 441.668 376.428 412.571C415.389 383.475 441.666 341.295 450.074 294.359C450.403 291.903 450.672 289.472 450.967 286.991C455.017 254.583 450.632 221.708 438.212 191.359L438.191 191.384Z" fill="url(#paint1_radial_1_314)"/>
<path d="M438.191 191.384C429.648 171.481 412.316 149.992 398.745 143.199C408.423 161.343 415.14 180.828 418.658 200.962V201.143L418.694 201.345C433.853 243.336 431.66 289.374 412.575 329.836C390.038 376.65 335.508 424.633 250.12 422.276C157.883 419.746 76.6051 353.462 61.4352 266.671C58.6701 252.982 61.4352 246.042 62.8253 234.917C60.9291 243.558 59.8709 252.352 59.6645 261.185V262.167C59.7514 309.804 78.2823 355.678 111.599 390.735C144.916 425.791 190.597 447.481 239.626 451.524C288.655 455.567 337.467 441.668 376.428 412.571C415.389 383.475 441.666 341.295 450.074 294.359C450.403 291.903 450.672 289.472 450.967 286.991C455.017 254.583 450.632 221.708 438.212 191.359L438.191 191.384Z" fill="url(#paint2_radial_1_314)"/>
<path d="M342.606 213.732C343.032 214.022 343.428 214.312 343.829 214.601C338.889 206.122 332.741 198.359 325.564 191.541C264.428 132.354 309.547 63.2454 317.152 59.7089L317.228 59.6008C267.837 87.5979 251.069 139.417 249.547 165.351C251.84 165.199 254.113 165.012 256.457 165.012C273.98 165.045 291.182 169.569 306.314 178.125C321.445 186.681 333.967 198.962 342.606 213.722V213.732Z" fill="url(#paint3_radial_1_314)"/>
<path d="M256.559 225.569C256.234 230.304 238.953 246.636 232.911 246.636C177 246.636 167.919 279.383 167.919 279.383C170.395 306.957 190.242 329.679 214.235 341.664C215.331 342.214 216.442 342.71 217.553 343.196C219.478 344.021 221.402 344.784 223.327 345.485C231.561 348.306 240.185 349.917 248.913 350.264C346.934 354.714 365.909 236.803 295.178 202.568C311.863 200.466 328.759 204.438 342.591 213.712C333.952 198.953 321.43 186.671 306.298 178.115C291.167 169.559 273.965 165.035 256.442 165.002C254.108 165.002 251.825 165.189 249.532 165.341C229.8 166.651 210.935 173.688 195.397 185.534C198.395 187.989 201.78 191.271 208.908 198.073C222.251 210.8 256.472 223.983 256.548 225.53L256.559 225.569Z" fill="url(#paint4_radial_1_314)"/>
<path d="M256.559 225.569C256.234 230.304 238.953 246.636 232.911 246.636C177 246.636 167.919 279.383 167.919 279.383C170.395 306.957 190.242 329.679 214.235 341.664C215.331 342.214 216.442 342.71 217.553 343.196C219.478 344.021 221.402 344.784 223.327 345.485C231.561 348.306 240.185 349.917 248.913 350.264C346.934 354.714 365.909 236.803 295.178 202.568C311.863 200.466 328.759 204.438 342.591 213.712C333.952 198.953 321.43 186.671 306.298 178.115C291.167 169.559 273.965 165.035 256.442 165.002C254.108 165.002 251.825 165.189 249.532 165.341C229.8 166.651 210.935 173.688 195.397 185.534C198.395 187.989 201.78 191.271 208.908 198.073C222.251 210.8 256.472 223.983 256.548 225.53L256.559 225.569Z" fill="url(#paint5_radial_1_314)"/>
<path d="M186.239 179.252C187.832 180.234 189.146 181.089 190.298 181.86C185.818 166.677 185.627 150.609 189.745 135.331C171.606 143.837 155.489 155.896 142.414 170.744C143.373 170.72 171.896 170.224 186.239 179.252Z" fill="url(#paint6_radial_1_314)"/>
<path d="M61.3997 266.681C76.5746 353.472 157.848 419.781 250.085 422.286C335.473 424.624 390.013 376.636 412.54 329.846C431.625 289.384 433.817 243.345 418.658 201.354V201.173C418.658 201.03 418.628 200.947 418.658 200.991L418.694 201.31C425.67 245.403 402.504 288.101 366.284 317.031L366.173 317.277C295.6 372.927 228.071 350.844 214.423 341.836C213.469 341.394 212.515 340.934 211.561 340.456C170.42 321.418 153.419 285.149 157.071 254.009C147.305 254.148 137.707 251.543 129.44 246.508C121.172 241.474 114.59 234.226 110.491 225.643C121.292 219.238 133.607 215.617 146.262 215.125C158.918 214.633 171.493 217.287 182.789 222.834C206.073 233.065 232.568 234.074 256.609 225.643C256.533 224.096 222.312 210.908 208.969 198.186C201.84 191.384 198.456 188.107 195.458 185.647C193.837 184.318 192.144 183.075 190.384 181.923C189.217 181.152 187.903 180.317 186.326 179.315C171.983 170.288 143.459 170.784 142.515 170.808H142.424C134.631 161.245 135.179 129.711 135.626 123.125C133.32 124.022 131.12 125.153 129.06 126.499C122.181 131.252 115.75 136.586 109.842 142.438C103.086 149.027 96.9115 156.153 91.3843 163.74C78.7438 181.087 69.7771 200.68 65.0019 221.399C64.9055 221.787 57.9192 251.356 61.3642 266.691L61.3997 266.681Z" fill="url(#paint7_radial_1_314)"/>
<path d="M325.559 191.531C332.737 198.357 338.886 206.128 343.824 214.616C344.904 215.407 345.914 216.193 346.771 216.954C391.353 256.739 367.994 312.979 366.254 316.958C402.469 288.072 425.614 245.344 418.663 201.237C396.421 147.551 358.694 125.89 327.948 78.7863C326.391 76.4041 324.833 74.017 323.316 71.4972C322.449 70.0581 321.754 68.7614 321.15 67.5678C319.873 65.1736 318.889 62.6433 318.217 60.0283C318.218 59.9076 318.173 59.7908 318.091 59.7002C318.009 59.6096 317.895 59.5516 317.771 59.5371C317.65 59.5049 317.522 59.5049 317.401 59.5371C317.375 59.5371 317.335 59.5813 317.304 59.5911C317.274 59.6009 317.208 59.6451 317.162 59.6648C309.557 63.157 264.448 132.31 325.584 191.447L325.559 191.531Z" fill="url(#paint8_radial_1_314)"/>
<path d="M346.766 216.974C345.909 216.212 344.899 215.427 343.818 214.636C343.418 214.346 343.022 214.056 342.596 213.766C328.764 204.492 311.868 200.52 295.183 202.622C365.909 236.857 346.934 354.739 248.918 350.318C240.191 349.971 231.566 348.36 223.332 345.539C221.407 344.842 219.483 344.079 217.558 343.25C216.447 342.759 215.336 342.268 214.24 341.718L214.377 341.801C228.045 350.834 295.554 372.903 366.127 317.242L366.238 316.997C367.999 313.018 391.358 256.779 346.756 216.993L346.766 216.974Z" fill="url(#paint9_radial_1_314)"/>
<path d="M167.924 279.353C167.924 279.353 177 246.606 232.916 246.606C238.958 246.606 256.254 230.275 256.564 225.54C232.522 233.971 206.028 232.962 182.744 222.73C171.448 217.184 158.872 214.53 146.217 215.022C133.561 215.514 121.246 219.135 110.446 225.54C114.545 234.123 121.126 241.37 129.394 246.405C137.662 251.44 147.26 254.045 157.026 253.905C153.383 285.031 170.379 321.295 211.516 340.352C212.434 340.78 213.296 341.241 214.24 341.649C190.227 329.64 170.4 306.928 167.924 279.368V279.353Z" fill="url(#paint10_radial_1_314)"/>
<path d="M438.192 191.384C429.648 171.481 412.317 149.992 398.745 143.199C408.423 161.343 415.141 180.828 418.659 200.962L418.694 201.281C396.462 147.644 358.776 125.984 327.979 78.8798C326.422 76.4976 324.864 74.1105 323.347 71.5907C322.48 70.1516 321.785 68.8549 321.181 67.6613C319.904 65.2671 318.92 62.7368 318.248 60.1218C318.249 60.0011 318.204 59.8843 318.122 59.7937C318.04 59.7031 317.926 59.6451 317.802 59.6306C317.681 59.5984 317.553 59.5984 317.432 59.6306C317.406 59.6306 317.366 59.6748 317.335 59.6846C317.305 59.6944 317.239 59.7386 317.193 59.7583L317.269 59.6306C267.878 87.6276 251.11 139.447 249.588 165.381C251.881 165.229 254.154 165.042 256.498 165.042C274.021 165.075 291.223 169.599 306.355 178.155C321.486 186.71 334.008 198.992 342.647 213.752C328.816 204.477 311.919 200.505 295.235 202.607C365.96 236.842 346.985 354.724 248.969 350.304C240.242 349.957 231.618 348.346 223.383 345.525C221.459 344.827 219.534 344.064 217.61 343.236C216.498 342.745 215.387 342.253 214.291 341.703L214.428 341.787C213.475 341.345 212.521 340.885 211.567 340.407C212.485 340.834 213.348 341.296 214.291 341.703C190.278 329.689 170.451 306.977 167.975 279.422C167.975 279.422 177.052 246.675 232.967 246.675C239.01 246.675 256.305 230.344 256.615 225.609C256.539 224.062 222.318 210.874 208.974 198.152C201.846 191.349 198.462 188.073 195.464 185.612C193.843 184.284 192.149 183.041 190.39 181.889C185.91 166.707 185.719 150.639 189.837 135.36C171.698 143.866 155.581 155.925 142.506 170.774H142.415C134.622 161.211 135.17 129.677 135.616 123.091C133.311 123.988 131.11 125.119 129.051 126.465C122.171 131.218 115.74 136.552 109.832 142.404C103.1 149.011 96.9515 156.154 91.4508 163.755C78.8103 181.102 69.8436 200.695 65.0684 221.414L64.8046 222.672C64.4342 224.347 62.7752 232.854 62.5367 234.681C61.0192 243.462 60.0501 252.325 59.6346 261.219V262.202C59.7215 309.838 78.2525 355.713 111.569 390.769C144.886 425.825 190.568 447.516 239.596 451.559C288.625 455.601 337.437 441.702 376.398 412.606C415.359 383.51 441.637 341.33 450.044 294.393C450.374 291.937 450.643 289.506 450.937 287.026C454.987 254.617 450.602 221.743 438.182 191.394L438.192 191.384Z" fill="url(#paint11_linear_1_314)"/>
<defs>
<linearGradient id="paint0_linear_1_314" x1="412.165" y1="120.438" x2="95.9262" y2="435.603" gradientUnits="userSpaceOnUse">
<stop offset="0.048" stop-color="#FFF44F"/>
<stop offset="0.111" stop-color="#FFE847"/>
<stop offset="0.225" stop-color="#FFC830"/>
<stop offset="0.368" stop-color="#FF980E"/>
<stop offset="0.401" stop-color="#FF8B16"/>
<stop offset="0.462" stop-color="#FF672A"/>
<stop offset="0.534" stop-color="#FF3647"/>
<stop offset="0.705" stop-color="#E31587"/>
</linearGradient>
<radialGradient id="paint1_radial_1_314" cx="0" cy="0" r="1" gradientUnits="userSpaceOnUse" gradientTransform="translate(399.531 103.807) scale(409.942 396.87)">
<stop offset="0.129" stop-color="#FFBD4F"/>
<stop offset="0.186" stop-color="#FFAC31"/>
<stop offset="0.247" stop-color="#FF9D17"/>
<stop offset="0.283" stop-color="#FF980E"/>
<stop offset="0.403" stop-color="#FF563B"/>
<stop offset="0.467" stop-color="#FF3750"/>
<stop offset="0.71" stop-color="#F5156C"/>
<stop offset="0.782" stop-color="#EB0878"/>
<stop offset="0.86" stop-color="#E50080"/>
</radialGradient>
<radialGradient id="paint2_radial_1_314" cx="0" cy="0" r="1" gradientUnits="userSpaceOnUse" gradientTransform="translate(247.325 265.895) scale(409.942 396.87)">
<stop offset="0.3" stop-color="#960E18"/>
<stop offset="0.351" stop-color="#B11927" stop-opacity="0.74"/>
<stop offset="0.435" stop-color="#DB293D" stop-opacity="0.343"/>
<stop offset="0.497" stop-color="#F5334B" stop-opacity="0.094"/>
<stop offset="0.53" stop-color="#FF3750" stop-opacity="0"/>
</radialGradient>
<radialGradient id="paint3_radial_1_314" cx="0" cy="0" r="1" gradientUnits="userSpaceOnUse" gradientTransform="translate(298.06 15.3949) scale(296.954 287.486)">
<stop offset="0.132" stop-color="#FFF44F"/>
<stop offset="0.252" stop-color="#FFDC3E"/>
<stop offset="0.506" stop-color="#FF9D12"/>
<stop offset="0.526" stop-color="#FF980E"/>
</radialGradient>
<radialGradient id="paint4_radial_1_314" cx="0" cy="0" r="1" gradientUnits="userSpaceOnUse" gradientTransform="translate(201.663 369.042) scale(195.179 188.956)">
<stop offset="0.353" stop-color="#3A8EE6"/>
<stop offset="0.472" stop-color="#5C79F0"/>
<stop offset="0.669" stop-color="#9059FF"/>
<stop offset="1" stop-color="#C139E6"/>
</radialGradient>
<radialGradient id="paint5_radial_1_314" cx="0" cy="0" r="1" gradientUnits="userSpaceOnUse" gradientTransform="translate(267.152 231.827) rotate(-13.1735) scale(103.321 117.514)">
<stop offset="0.206" stop-color="#9059FF" stop-opacity="0"/>
<stop offset="0.278" stop-color="#8C4FF3" stop-opacity="0.064"/>
<stop offset="0.747" stop-color="#7716A8" stop-opacity="0.45"/>
<stop offset="0.975" stop-color="#6E008B" stop-opacity="0.6"/>
</radialGradient>
<radialGradient id="paint6_radial_1_314" cx="0" cy="0" r="1" gradientUnits="userSpaceOnUse" gradientTransform="translate(242.251 89.0716) scale(140.436 135.958)">
<stop stop-color="#FFE226"/>
<stop offset="0.121" stop-color="#FFDB27"/>
<stop offset="0.295" stop-color="#FFC82A"/>
<stop offset="0.502" stop-color="#FFA930"/>
<stop offset="0.732" stop-color="#FF7E37"/>
<stop offset="0.792" stop-color="#FF7139"/>
</radialGradient>
<radialGradient id="paint7_radial_1_314" cx="0" cy="0" r="1" gradientUnits="userSpaceOnUse" gradientTransform="translate(353.869 0.659727) scale(599.186 580.079)">
<stop offset="0.113" stop-color="#FFF44F"/>
<stop offset="0.456" stop-color="#FF980E"/>
<stop offset="0.622" stop-color="#FF5634"/>
<stop offset="0.716" stop-color="#FF3647"/>
<stop offset="0.904" stop-color="#E31587"/>
</radialGradient>
<radialGradient id="paint8_radial_1_314" cx="0" cy="0" r="1" gradientUnits="userSpaceOnUse" gradientTransform="translate(304.067 32.822) rotate(83.7791) scale(425.247 288.066)">
<stop stop-color="#FFF44F"/>
<stop offset="0.06" stop-color="#FFE847"/>
<stop offset="0.168" stop-color="#FFC830"/>
<stop offset="0.304" stop-color="#FF980E"/>
<stop offset="0.356" stop-color="#FF8B16"/>
<stop offset="0.455" stop-color="#FF672A"/>
<stop offset="0.57" stop-color="#FF3647"/>
<stop offset="0.737" stop-color="#E31587"/>
</radialGradient>
<radialGradient id="paint9_radial_1_314" cx="0" cy="0" r="1" gradientUnits="userSpaceOnUse" gradientTransform="translate(242.251 138.189) scale(374.022 362.095)">
<stop offset="0.137" stop-color="#FFF44F"/>
<stop offset="0.48" stop-color="#FF980E"/>
<stop offset="0.592" stop-color="#FF5634"/>
<stop offset="0.655" stop-color="#FF3647"/>
<stop offset="0.904" stop-color="#E31587"/>
</radialGradient>
<radialGradient id="paint10_radial_1_314" cx="0" cy="0" r="1" gradientUnits="userSpaceOnUse" gradientTransform="translate(338.649 157.836) scale(409.384 396.33)">
<stop offset="0.094" stop-color="#FFF44F"/>
<stop offset="0.231" stop-color="#FFE141"/>
<stop offset="0.509" stop-color="#FFAF1E"/>
<stop offset="0.626" stop-color="#FF980E"/>
</radialGradient>
<linearGradient id="paint11_linear_1_314" x1="408.207" y1="118.817" x2="139.48" y2="396.446" gradientUnits="userSpaceOnUse">
<stop offset="0.167" stop-color="#FFF44F" stop-opacity="0.8"/>
<stop offset="0.266" stop-color="#FFF44F" stop-opacity="0.634"/>
<stop offset="0.489" stop-color="#FFF44F" stop-opacity="0.217"/>
<stop offset="0.6" stop-color="#FFF44F" stop-opacity="0"/>
</linearGradient>
</defs>
</svg>
