<svg width="512" height="512" viewBox="0 0 512 512" fill="none" xmlns="http://www.w3.org/2000/svg">
<rect width="512" height="512" rx="145" fill="#FF5252"/>
<rect x="243.408" y="122" width="24.1841" height="268" rx="12.0921" fill="white"/>
<rect x="199.876" y="187.466" width="24.1841" height="154.458" rx="12.0921" fill="white"/>
<rect x="286.939" y="199.74" width="24.1841" height="128.885" rx="12.0921" fill="white"/>
<rect x="156.345" y="229.405" width="24.1841" height="70.5802" rx="12.0921" fill="white"/>
<rect x="330.471" y="239.634" width="24.1841" height="57.2824" rx="12.0921" fill="white"/>
<rect x="117.65" y="247.817" width="19.3473" height="32.7328" rx="9.67366" fill="white"/>
<rect x="374.002" y="247.817" width="19.3473" height="32.7328" rx="9.67366" fill="white"/>
<rect x="83.7925" y="251.908" width="14.5105" height="25.5725" rx="7.25524" fill="white"/>
<rect x="412.697" y="251.908" width="14.5105" height="25.5725" rx="7.25524" fill="white"/>
<rect x="48" y="256" width="16.4452" height="17.3893" rx="8.22261" fill="white"/>
<rect x="446.555" y="256" width="16.4452" height="17.3893" rx="8.22261" fill="white"/>
</svg>
