<svg width="512" height="512" viewBox="0 0 512 512" fill="none" xmlns="http://www.w3.org/2000/svg">
<g clip-path="url(#clip0_0_86)">
<rect width="512" height="512" rx="145" fill="#00A4FF"/>
<rect x="322" y="94" width="74" height="74" rx="37" fill="#FFF5ED"/>
<path d="M385.244 214.344C398.089 205.676 414.911 205.676 427.756 214.344L600.548 330.95C652.883 366.266 627.884 448 564.748 448H248.252C185.116 448 160.118 366.266 212.452 330.949L385.244 214.344Z" fill="#A9CDFF"/>
<path d="M156.349 174.785C170.001 164.297 188.999 164.297 202.651 174.785L502.633 405.248C551.109 442.49 524.773 520 463.643 520H-104.643C-165.773 520 -192.109 442.49 -143.633 405.248L156.349 174.785Z" fill="#FFF5ED"/>
<path d="M0 294.987L151.12 178.601C160.983 171.005 175.272 178.036 175.272 190.485V309.576C175.272 357.362 195.623 402.888 231.23 434.758L322 516H9.014L0 415.789V294.987Z" fill="#BCD7FF"/>
<path d="M152 178L152.789 177.351C159.125 172.14 166.844 168.89 175 168V188H152V178Z" fill="#BCD7FF"/>
</g>
<defs>
<clipPath id="clip0_0_86">
<rect width="512" height="512" rx="145" fill="white"/>
</clipPath>
</defs>
</svg>
