<svg width="512" height="512" viewBox="0 0 512 512" fill="none" xmlns="http://www.w3.org/2000/svg">
<g clip-path="url(#clip0_6_12)">
<rect width="512" height="512" rx="145" fill="white"/>
<rect x="256" y="256" width="278" height="276" fill="#EFEFEF"/>
<rect x="-22" y="-20" width="278" height="276" fill="#EFEFEF"/>
<path d="M369.84 295.92C377.023 287.549 389.977 287.549 397.16 295.92L404.24 304.171C407.973 308.522 413.556 310.834 419.272 310.397L430.112 309.569C441.111 308.729 450.271 317.889 449.431 328.888L448.603 339.728C448.166 345.444 450.478 351.027 454.829 354.76L463.08 361.84C471.451 369.023 471.451 381.977 463.08 389.16L454.829 396.24C450.478 399.973 448.166 405.556 448.603 411.272L449.431 422.112C450.271 433.111 441.111 442.271 430.112 441.431L419.272 440.603C413.556 440.166 407.973 442.478 404.24 446.829L397.16 455.08C389.977 463.451 377.023 463.451 369.84 455.08L362.76 446.829C359.027 442.478 353.444 440.166 347.728 440.603L336.888 441.431C325.889 442.271 316.729 433.111 317.569 422.112L318.397 411.272C318.834 405.556 316.522 399.973 312.171 396.24L303.92 389.16C295.549 381.977 295.549 369.023 303.92 361.84L312.171 354.76C316.522 351.027 318.834 345.444 318.397 339.728L317.569 328.888C316.729 317.889 325.889 308.729 336.888 309.569L347.728 310.397C353.444 310.834 359.027 308.522 362.76 304.171L369.84 295.92Z" fill="#FF5656"/>
<path d="M99.52 339.64V331.72C99.52 329.44 100.66 328.3 102.94 328.3H105.46C115.18 328.3 121.42 324.28 124.18 316.24C125.14 314.08 126.64 313 128.68 313H134.8C135.76 313 136.54 313.3 137.14 313.9C137.74 314.5 138.04 315.28 138.04 316.24V435.58C138.04 436.42 137.68 437.2 136.96 437.92C136.24 438.64 135.46 439 134.62 439H124.36C123.4 439 122.56 438.64 121.84 437.92C121.24 437.2 120.94 436.42 120.94 435.58V342.7H102.76C100.6 342.7 99.52 341.68 99.52 339.64Z" fill="#64C8FF"/>
<path d="M110 71C110 67.134 113.134 64 117 64H119C122.866 64 126 67.134 126 71V75.5C126 79.366 129.134 82.5 133 82.5H195.5C199.366 82.5 202.5 85.634 202.5 89.5V134C202.5 137.866 199.366 141 195.5 141H133C129.134 141 126 144.134 126 148V204C126 207.866 122.866 211 119 211H117C113.134 211 110 207.866 110 204V71Z" fill="#6BD56F"/>
</g>
<defs>
<clipPath id="clip0_6_12">
<rect width="512" height="512" rx="145" fill="white"/>
</clipPath>
</defs>
</svg>
