<svg width="512" height="512" viewBox="0 0 512 512" fill="none" xmlns="http://www.w3.org/2000/svg">
<rect x="17" y="17" width="478" height="478" rx="128" fill="#484848"/>
<path d="M95 220.6C95 218.333 96.4 216.6 99.2 215.4L158.6 190.8L99.2 166.4C96.4 165.2 95 163.533 95 161.4V148.4C95 146.667 95.6 145.533 96.8 145C98 144.467 99.2 144.533 100.4 145.2L182 182C185.2 183.6 186.8 186.467 186.8 190.6C186.8 195.133 185.133 198.2 181.8 199.8L100.4 236.6C99.2 237.267 98 237.333 96.8 236.8C95.6 236.267 95 235.133 95 233.4V220.6Z" fill="white"/>
<rect x="179" y="240" width="93" height="20" fill="white"/>
<rect x="17" y="17" width="478" height="478" rx="128" stroke="#D2D2D2" stroke-width="34"/>
</svg>
