<svg width="512" height="512" viewBox="0 0 512 512" fill="none" xmlns="http://www.w3.org/2000/svg">
<g clip-path="url(#clip0_0_22)">
<rect width="512" height="512" rx="145" fill="#B1B1B1"/>
<path fill-rule="evenodd" clip-rule="evenodd" d="M414.928 203.578C417.968 221.543 400.998 236.655 396.83 254.393C395.437 260.322 395.791 266.723 398.229 272.805C403.46 285.85 414.67 297.798 412.369 311.664C408.611 334.304 396.755 354.801 379.178 369.343C365.14 380.958 343.567 373.818 326.122 379.078C320.291 380.836 314.924 384.342 310.877 389.495C302.194 400.547 297.452 416.23 284.294 421.169C262.807 429.235 239.129 429.216 217.746 421.265C200.668 414.915 196.065 392.663 182.788 380.185C178.35 376.014 172.63 373.12 166.143 372.19C152.23 370.197 136.278 373.932 125.421 365.006C107.693 350.431 95.8699 329.916 92.0643 307.423C89.0248 289.457 105.995 274.345 110.162 256.607C111.555 250.679 111.202 244.277 108.763 238.195C103.533 225.15 92.3224 213.202 94.6238 199.337C98.3816 176.696 110.237 156.2 127.814 141.657C141.853 130.042 163.425 137.182 180.87 131.923C186.701 130.165 192.068 126.658 196.116 121.505C204.798 110.453 209.541 94.7704 222.699 89.8308C244.185 81.765 267.863 81.7838 289.246 89.7348C306.324 96.0851 310.927 118.338 324.204 130.816C328.642 134.986 334.363 137.881 340.849 138.81C354.762 140.803 370.714 137.069 381.571 145.994C399.3 160.569 411.123 181.084 414.928 203.578Z" fill="white"/>
<rect x="168.208" y="169.25" width="173.458" height="173.458" rx="86.7292" stroke="#B1B1B1" stroke-width="22"/>
</g>
<defs>
<clipPath id="clip0_0_22">
<rect width="512" height="512" rx="145" fill="white"/>
</clipPath>
</defs>
</svg>
