<svg width="512" height="512" viewBox="0 0 512 512" fill="none" xmlns="http://www.w3.org/2000/svg">
<rect width="512" height="512" rx="145" fill="#00E05E"/>
<ellipse cx="259.694" cy="256.366" rx="164.473" ry="166.416" transform="rotate(5.87052 259.694 256.366)" fill="white"/>
<path d="M117.201 376.117L159.46 366.652C168.043 364.73 177.039 366.544 184.206 371.643L184.585 371.913L167.333 393.922L102.483 407.495L117.201 376.117Z" fill="white"/>
<path d="M111.795 329.091L136.546 316.958V316.958C139.08 323.358 138.873 330.519 135.973 336.761L103.267 407.169V407.169C90.6088 410.17 80.0708 397.244 85.5606 385.45L111.795 329.091Z" fill="white"/>
<path d="M130 347L149.919 376.25H110.082L130 347Z" fill="white"/>
<path d="M241.052 364.671C239.514 373.608 245.517 382.218 254.579 382.578C270.628 383.214 286.709 380.733 301.933 375.213C322.33 367.817 340.495 355.219 354.662 338.643C368.829 322.067 378.516 302.078 382.779 280.621C385.971 264.558 386.043 248.082 383.047 232.098C381.38 223.204 371.999 218.527 363.414 221.387V221.387C354.922 224.217 350.455 233.372 351.729 242.232C353.253 252.821 352.978 263.64 350.876 274.217C347.718 290.11 340.544 304.914 330.051 317.191C319.558 329.468 306.104 338.799 290.997 344.277C281.081 347.872 270.675 349.727 260.226 349.802C251.139 349.867 242.593 355.716 241.052 364.671V364.671Z" fill="#00E05E"/>
</svg>
