<svg width="512" height="512" viewBox="0 0 512 512" fill="none" xmlns="http://www.w3.org/2000/svg">
<rect width="512" height="512" rx="145" fill="#21ACFF"/>
<path d="M91.2119 239.018C86.0112 217.614 102.224 196.99 124.251 196.99H388.238C410.11 196.99 426.293 217.342 421.364 238.652L388.846 379.239C384.546 397.833 367.985 411 348.901 411H165.231C146.316 411 129.856 398.06 125.39 379.68L91.2119 239.018Z" fill="white"/>
<rect x="191" y="111" width="130" height="176.197" rx="65" stroke="white" stroke-width="22"/>
<path d="M265 246C265 241.029 260.971 237 256 237C251.029 237 247 241.029 247 246H265ZM249.636 368.364C253.151 371.879 258.849 371.879 262.364 368.364L319.64 311.088C323.154 307.574 323.154 301.875 319.64 298.36C316.125 294.846 310.426 294.846 306.912 298.36L256 349.272L205.088 298.36C201.574 294.846 195.875 294.846 192.36 298.36C188.846 301.875 188.846 307.574 192.36 311.088L249.636 368.364ZM247 246V362H265V246H247Z" fill="#21ACFF"/>
</svg>
