<svg width="512" height="512" viewBox="0 0 512 512" fill="none" xmlns="http://www.w3.org/2000/svg">
<rect width="512" height="512" rx="145" fill="#60EC66"/>
<path d="M145 202H255H368V377C368 391.359 356.359 403 342 403H171C156.641 403 145 391.359 145 377V202Z" fill="white"/>
<rect x="120" y="128" width="273" height="59" rx="17" fill="white"/>
<rect x="212" y="101" width="89" height="81" rx="17" fill="white"/>
<rect x="192" y="231" width="59" height="62.2" rx="9" fill="#FF6A6A"/>
<rect x="267" y="246" width="59" height="62.2" rx="29.5" fill="#9A6AFF"/>
<path d="M227.215 367.65C222.129 370.559 215.869 366.025 216.85 360.142L224.583 313.769C225.329 309.295 230.01 306.803 234.14 308.682L274.999 327.266C280.255 329.657 280.728 337.046 275.806 339.861L227.215 367.65Z" fill="#72CEFF"/>
</svg>
