<?xml version="1.0" encoding="UTF-8" standalone="no"?>
<svg
   width="512"
   height="512"
   viewBox="0 0 512 512"
   fill="none"
   version="1.1"
   id="svg3"
   sodipodi:docname="esteros25.svg"
   inkscape:version="1.3 (0e150ed6c4, 2023-07-21)"
   inkscape:export-filename="esteros25.png"
   inkscape:export-xdpi="192"
   inkscape:export-ydpi="192"
   xmlns:inkscape="http://www.inkscape.org/namespaces/inkscape"
   xmlns:sodipodi="http://sodipodi.sourceforge.net/DTD/sodipodi-0.dtd"
   xmlns="http://www.w3.org/2000/svg"
   xmlns:svg="http://www.w3.org/2000/svg">
  <defs
     id="defs3" />
  <sodipodi:namedview
     id="namedview3"
     pagecolor="#ffffff"
     bordercolor="#000000"
     borderopacity="0.25"
     inkscape:showpageshadow="2"
     inkscape:pageopacity="0.0"
     inkscape:pagecheckerboard="0"
     inkscape:deskcolor="#d1d1d1"
     inkscape:zoom="0.55587984"
     inkscape:cx="114.23332"
     inkscape:cy="-45.873223"
     inkscape:window-width="1499"
     inkscape:window-height="991"
     inkscape:window-x="26"
     inkscape:window-y="23"
     inkscape:window-maximized="0"
     inkscape:current-layer="svg3" />
  <rect
     width="512"
     height="512"
     rx="145.00002"
     fill="#21acff"
     id="rect1-5"
     x="4.7960207e-06"
     y="3.5138328e-08"
     style="fill:#c2e4ff;fill-opacity:1;stroke-width:0.999998" />
  <path
     id="path5"
     style="fill:#4adff7;fill-opacity:1;stroke-width:1.0535"
     d="M 512 266.6582 C 344.14821 295.3981 234.34478 374.89825 190.41602 512 L 372.85352 512 C 375.26246 512 377.657 511.94008 380.03516 511.82031 C 382.41332 511.70054 384.77464 511.52183 387.11914 511.28516 C 391.80815 510.81181 396.42768 510.10732 400.96484 509.18359 C 405.50201 508.25987 409.95795 507.11677 414.32031 505.76562 C 418.68267 504.41448 422.9526 502.8552 427.11719 501.09961 C 431.28177 499.34401 435.34131 497.39099 439.28516 495.25391 C 443.229 493.11682 447.05572 490.79444 450.75586 488.29883 C 454.456 485.80322 458.02942 483.13391 461.46289 480.30273 C 464.89636 477.47156 468.19015 474.47971 471.33398 471.33594 C 474.47782 468.19216 477.4715 464.8963 480.30273 461.46289 C 483.13397 458.02948 485.80316 454.4579 488.29883 450.75781 C 490.7945 447.05773 493.11677 443.2309 495.25391 439.28711 C 497.39105 435.34332 499.34397 431.28173 501.09961 427.11719 C 502.85525 422.95265 504.41444 418.68459 505.76562 414.32227 C 507.11681 409.95994 508.25984 405.50394 509.18359 400.9668 C 510.10735 396.42966 510.8118 391.81009 511.28516 387.12109 C 511.52184 384.7766 511.70054 382.41526 511.82031 380.03711 C 511.94009 377.65895 512 375.26441 512 372.85547 L 512 266.6582 z " />
  <path
     d="m 86.709858,373.99182 q -2.69696,0 -4.71968,-1.6856 -1.6856,-2.02272 -1.6856,-4.71968 V 353.4275 q 0,-4.04544 1.6856,-6.40528 1.6856,-2.69696 3.3712,-4.38256 l 69.783842,-63.71568 q 23.5984,-21.23856 36.40896,-38.09456 13.14768,-17.19312 13.14768,-35.73472 0,-9.77648 -3.70832,-17.53024 -3.3712,-8.09088 -9.77648,-13.4848 -6.06816,-5.73104 -14.49616,-8.428 -8.428,-3.03408 -17.86736,-3.03408 -11.12496,0 -19.89008,4.04544 -8.428,3.70832 -14.83328,9.77648 -6.06816,6.06816 -10.45072,13.82192 -4.04544,7.41664 -6.40528,15.1704 -1.34848,4.04544 -4.04544,6.06816 -2.69696,1.6856 -6.405282,0.33712 l -15.1704,-3.70832 q -2.69696,-0.67424 -4.38256,-3.3712 -1.34848,-2.69696 -0.67424,-5.73104 2.69696,-13.4848 9.43936,-25.284 7.07952,-11.7992 17.530242,-20.56432 10.78784,-9.10224 24.94688,-14.15904 14.15904,-5.39392 31.01504,-5.39392 16.856,0 31.35216,5.0568 14.49616,5.0568 24.94688,14.15904 10.45072,9.10224 16.18176,21.9128 6.06816,12.81056 6.06816,28.6552 0,11.12496 -3.3712,21.9128 -3.3712,10.45072 -10.45072,21.57568 -7.07952,11.12496 -18.20448,23.26128 -11.12496,11.7992 -26.63248,25.284 L 124.4673,344.9995 h 112.59808 q 2.69696,0 4.38256,1.6856 1.6856,1.6856 1.6856,4.38256 v 16.51888 q 0,2.69696 -1.6856,4.71968 -1.6856,1.6856 -4.38256,1.6856 z m 260.256652,4.38256 q -28.99232,0 -50.23088,-11.46208 -20.90144,-11.46208 -31.35216,-30.00368 -1.6856,-2.69696 -1.01136,-5.73104 1.01136,-3.03408 3.70832,-4.71968 l 12.47344,-8.428 q 3.70832,-2.69696 6.7424,-1.6856 3.03408,1.01136 4.71968,3.3712 9.10224,12.81056 21.9128,21.57568 12.81056,8.428 33.03776,8.428 12.13632,0 22.24992,-4.04544 10.1136,-4.04544 17.19311,-11.12496 7.41664,-7.07952 11.46208,-16.18176 4.04544,-9.43936 4.04544,-20.2272 0,-11.46208 -4.04544,-20.56432 -4.04544,-9.43936 -11.12496,-15.84464 -7.07951,-6.40528 -16.85599,-9.77648 -9.43936,-3.70832 -20.56432,-3.70832 -14.83328,0 -25.95824,5.39392 -11.12496,5.0568 -17.86736,10.78784 -4.04544,3.3712 -8.76512,2.35984 l -17.19312,-3.70832 q -5.39392,-1.6856 -4.71968,-6.40528 l 8.428,-112.26096 q 0.33712,-2.69696 2.02272,-4.38256 2.02272,-2.02272 4.71968,-2.02272 h 127.09423 q 2.69696,0 4.38256,2.02272 2.02272,1.6856 2.02272,4.38256 v 17.53024 q 0,2.69696 -2.02272,4.71968 -1.6856,1.6856 -4.38256,1.6856 H 309.54619 l -5.39392,68.77248 q 10.78784,-7.75376 23.5984,-12.13632 13.14768,-4.38256 28.31808,-4.38256 16.51888,0 31.01503,5.39392 14.49616,5.39392 25.284,15.50752 10.78784,9.77648 16.856,23.93552 6.40528,14.15904 6.40528,31.35216 0,16.856 -6.40528,31.68928 -6.40528,14.83328 -18.20448,25.95824 -11.7992,11.12496 -28.31808,17.53024 -16.18175,6.40528 -35.73471,6.40528 z"
     id="text2"
     style="font-size:337.12px;font-family:'Qualcomm Next';-inkscape-font-specification:'Qualcomm Next';fill:#ffffff;stroke-width:1.74334"
     aria-label="25" />
  <path
     id="path4"
     style="fill:#42abfc;fill-opacity:1;stroke-width:1.0535"
     d="M 391.71484 510.58789 C 390.17435 510.79547 388.67551 511.12804 387.11914 511.28516 C 384.77464 511.52183 382.41332 511.70054 380.03516 511.82031 C 377.657 511.94008 375.26246 512 372.85352 512 L 392.94727 512 C 392.53524 511.52128 392.12664 511.06515 391.71484 510.58789 z " />
  <path
     id="path3"
     style="fill:#42abfc;fill-opacity:1;stroke-width:1.0535"
     d="M 0 256 L 0 372.85547 C 0 375.26441 0.059916258 377.65895 0.1796875 380.03711 C 0.29945874 382.41526 0.4781717 384.7766 0.71484375 387.12109 C 1.1881878 391.81009 1.8926815 396.42966 2.8164062 400.9668 C 3.740131 405.50394 4.8832332 409.95994 6.234375 414.32227 C 7.5855168 418.68459 9.1447952 422.95265 10.900391 427.11719 C 12.655986 431.28173 14.609008 435.34332 16.746094 439.28711 C 18.883179 443.2309 21.20556 447.05773 23.701172 450.75781 C 26.196784 454.4579 28.86609 458.02948 31.697266 461.46289 C 34.528441 464.8963 37.520287 468.19216 40.664062 471.33594 C 43.807838 474.47971 47.103698 477.47156 50.537109 480.30273 C 53.970521 483.13391 57.542103 485.80322 61.242188 488.29883 C 64.942272 490.79444 68.769097 493.11682 72.712891 495.25391 C 76.656684 497.39099 80.718274 499.34401 84.882812 501.09961 C 89.047351 502.8552 93.315413 504.41448 97.677734 505.76562 C 102.04006 507.11677 106.49606 508.25987 111.0332 509.18359 C 115.57034 510.10732 120.18796 510.81181 124.87695 511.28516 C 127.22145 511.52183 129.58473 511.70054 131.96289 511.82031 C 134.34105 511.94008 136.73559 512 139.14453 512 L 372.85352 512 C 375.26246 512 377.657 511.94008 380.03516 511.82031 C 382.41332 511.70054 384.77464 511.52183 387.11914 511.28516 C 388.67551 511.12804 390.17435 510.79547 391.71484 510.58789 C 248.32214 344.39957 118.93416 267.04587 0 256 z " />
</svg>
