<svg width="3840" height="3840" viewBox="0 0 3840 3840" fill="none" xmlns="http://www.w3.org/2000/svg">
<g clip-path="url(#clip0_39_24)">
<rect width="3840" height="3840" rx="907" fill="#C2E4FF"/>
<path d="M1185.6 4985H-821L735.045 3944.02C781.025 3913.26 822.429 3876.16 858.031 3833.81L893.045 3792.17C2066.49 2396.57 3830.89 1638.22 5651 1747.18V4966.18L2614.7 4985H1185.6Z" fill="#4ADFF6"/>
<path d="M1763.39 2795H625.895C612.561 2795 600.061 2790 588.395 2780C578.395 2768.33 573.395 2755.83 573.395 2742.5V2590C573.395 2551.67 587.561 2520.83 615.895 2497.5L1110.89 2057.5C1230.89 1950.83 1318.39 1861.67 1373.39 1790C1428.39 1716.67 1455.89 1642.5 1455.89 1567.5C1455.89 1487.5 1428.39 1424.17 1373.39 1377.5C1318.39 1329.17 1250.89 1305 1170.89 1305C1019.23 1305 910.061 1391.67 843.395 1565C823.395 1618.33 790.061 1638.33 743.395 1625L580.895 1577.5C540.895 1565.83 526.728 1539.17 538.395 1497.5C570.061 1360.83 642.561 1245.83 755.895 1152.5C869.228 1057.5 1010.06 1010 1178.39 1010C1353.39 1010 1498.39 1059.17 1613.39 1157.5C1730.06 1255.83 1788.39 1386.67 1788.39 1550C1788.39 1665 1750.06 1775 1673.39 1880C1598.39 1985 1486.73 2101.67 1338.39 2230L1015.89 2507.5H1763.39C1778.39 2507.5 1790.89 2513.33 1800.89 2525C1810.89 2535 1815.89 2546.67 1815.89 2560V2742.5C1815.89 2755.83 1810.89 2768.33 1800.89 2780C1790.89 2790 1778.39 2795 1763.39 2795ZM2616.73 2830C2478.4 2830 2354.23 2804.17 2244.23 2752.5C2135.9 2699.17 2052.57 2626.67 1994.23 2535C1970.9 2500 1977.57 2468.33 2014.23 2440L2134.23 2342.5C2174.23 2309.17 2210.9 2312.5 2244.23 2352.5C2299.23 2415.83 2354.23 2463.33 2409.23 2495C2465.9 2525 2534.23 2540 2614.23 2540C2715.9 2540 2800.07 2510 2866.73 2450C2933.4 2388.33 2966.73 2312.5 2966.73 2222.5C2966.73 2129.17 2934.23 2055 2869.23 2000C2804.23 1945 2725.07 1917.5 2631.73 1917.5C2530.07 1917.5 2438.4 1951.67 2356.73 2020C2336.73 2035 2315.07 2040 2291.73 2035L2099.23 1992.5C2069.23 1984.17 2055.9 1966.67 2059.23 1940L2119.23 1100C2120.9 1085 2126.73 1072.5 2136.73 1062.5C2146.73 1050.83 2159.23 1045 2174.23 1045H3149.23C3164.23 1045 3176.73 1050.83 3186.73 1062.5C3198.4 1072.5 3204.23 1085 3204.23 1100V1290C3204.23 1305 3198.4 1318.33 3186.73 1330C3176.73 1340 3164.23 1345 3149.23 1345H2379.23L2346.73 1750C2450.07 1680 2569.23 1645 2704.23 1645C2870.9 1645 3011.73 1696.67 3126.73 1800C3241.73 1903.33 3299.23 2040.83 3299.23 2212.5C3299.23 2385.83 3235.07 2532.5 3106.73 2652.5C2980.07 2770.83 2816.73 2830 2616.73 2830Z" fill="white"/>
<path d="M-652.985 1964.73L-1371.73 1646.85C-1437.49 1617.77 -1413.35 1519.67 -1342.26 1527.1C259.135 1694.51 1748.23 2470.43 2817.34 3694.51L3776.37 4792.57L-720.519 4580.2L-652.985 1964.73Z" fill="#43ABFC"/>
</g>
<defs>
<clipPath id="clip0_39_24">
<rect width="3840" height="3840" rx="907" fill="white"/>
</clipPath>
</defs>
</svg>
