/* XPM */
static char *ubiquity[] = {
/* columns rows colors chars-per-pixel */
"32 32 120 2 ",
"   c #656565",
".  c #6C6461",
"X  c #6C6C6C",
"o  c #727272",
"O  c #79797A",
"+  c #AD5C3F",
"@  c #BC5F3F",
"#  c #DF501E",
"$  c #E94F19",
"%  c #E5521E",
"&  c #E9521E",
"*  c #E65421",
"=  c #E95420",
"-  c #E45827",
";  c #EA5825",
":  c #EA5D2C",
">  c #E65F30",
",  c #EB6232",
"<  c #E76639",
"1  c #EB6739",
"2  c #E6683B",
"3  c #EC693C",
"4  c #B86244",
"5  c #997467",
"6  c #DD6B43",
"7  c #DF6F48",
"8  c #DD7D5C",
"9  c #EC6D41",
"0  c #ED7145",
"q  c #E0754F",
"w  c #ED744A",
"e  c #EE7B53",
"r  c #E37D59",
"t  c #C37D65",
"y  c #EF815B",
"u  c #D48265",
"i  c #D98466",
"p  c #DF8E72",
"a  c #D1927C",
"s  c #E18464",
"d  c #EF8560",
"f  c #F08A66",
"g  c #F08D6A",
"h  c #F1916F",
"j  c #EB9A7E",
"k  c #F19574",
"l  c #F29778",
"z  c #F29879",
"x  c #818181",
"c  c #8C8C8C",
"v  c #918683",
"b  c #939494",
"n  c #9B9B9B",
"m  c #A3A3A3",
"M  c #AAA6A5",
"N  c #ABABAC",
"B  c #B4B5B6",
"V  c #BDBDBD",
"C  c #EC9E83",
"Z  c #F39F82",
"A  c #DFA997",
"S  c #EDA186",
"D  c #F3A286",
"F  c #F3A58A",
"G  c #F4A98F",
"H  c #F4AD94",
"J  c #EDB29D",
"K  c #F5B39B",
"L  c #C9BAB4",
"P  c #EDB6A3",
"I  c #E5BDAF",
"U  c #F6B7A1",
"Y  c #F6B8A2",
"T  c #F6BDA8",
"R  c #E1BEB2",
"E  c #EDC3B5",
"W  c #F7C4B2",
"Q  c #F8C6B5",
"!  c #C5C5C4",
"~  c #C6C7C8",
"^  c #CBCBCB",
"/  c #D6CBC8",
"(  c #D8CDC9",
")  c #D9D0CD",
"_  c #D3D3D3",
"`  c #DED4D1",
"'  c #DCDCDC",
"]  c #EBCDC3",
"[  c #ECD0C6",
"{  c #E5D5CF",
"}  c #EED2C8",
"|  c #F9D2C5",
" . c #FAD6CA",
".. c #E4D6D1",
"X. c #E0D8D5",
"o. c #EDDCD6",
"O. c #E4DCDA",
"+. c #FBDDD2",
"@. c #F1DED8",
"#. c #EFE1DC",
"$. c #FBE1D7",
"%. c #F3E1DB",
"&. c #FBE4DB",
"*. c #E4E4E4",
"=. c #EAE5E4",
"-. c #EEE8E6",
";. c #EBECEC",
":. c #F1E5E1",
">. c #FCEBE5",
",. c #F3EDEC",
"<. c #FDEFEA",
"1. c #F6F0EE",
"2. c #FDF1EC",
"3. c #EEEFF0",
"4. c #EFF0F1",
"5. c #F3F3F3",
"6. c #FEF6F3",
"7. c #FEF8F6",
"8. c #FEFEFE",
"9. c None",
/* pixels */
"9.9.9.9.9.9.9.9.= = & = = = 9.9.9.9.9.9.9.9.9.9.9.9.9.9.9.9.9.9.",
"9.9.9.9.9.9.= = = & & & & & & = 9.9.9.9.9.9.9.9.9.9.9.9.9.9.9.9.",
"9.9.9.9.9.* & & ; 0 f 1 e F 0 & 7 L ~ ~ ~ ~ ~ ~ ^ ! 9.9.9.9.9.9.",
"9.9.9.9.* = & 0 W 2.$.k >.8. ., & i ! ^ ~ ^ ^ ~ ^ ^ ! 9.9.9.9.9.",
"9.9.9.9.& & w &.&.l 3 y 7.8.&.1 & ; 5 b V ^ ~ ! ^ ^ ~ 9.9.9.9.9.",
"9.9.9.% = & d K 9 & & : H | D l : & 4 X   b ~ ^ ^ ^ ^ 9.9.9.9.9.",
"9.9.9.% : F | z = = = & = ; w >.d $ w ` N   x ~ ^ ^ ^ 9.9.9.9.9.",
"9.9.9.& e 7.8.>.3 & = = = = 1 &.F & < { ;.^ X x ^ ^ ^ 9.9.9.9.9.",
"9.9.9.% 0 >.8.+.1 & = = & & : $.G $ < ..*.;.^   n _ ^ 9.9.9.9.9.",
"9.9.9.% = y H e & = = & & & w 2.h $ 8 *.;.;.;.N   ! / 9.9.9.9.9.",
"9.9.9.9.& = K T : & & , z l g  .3 * A ;.;.*.*.*.X n ^ 9.9.9.9.9.",
"9.9.9.9.# & f 2.W w ; F 8.8.H 0 & q ` =.;.I P 3.n O ^ 9.9.9.9.9.",
"9.9.9.9.9.- & g &.2.H Y 8.8.Y & > R *.*.;.] C =.V X ~ 9.9.9.9.9.",
"9.9.9.9.9.t ; & 1 l Z e Q Q w % a *.;.' ;.o.C #.~   V 9.9.9.9.9.",
"9.9.9.9.9.M + % & & & & ; ; & u / =.;.*.;.o.C #.^ X ! 9.9.9.9.9.",
"9.9.9.9.9.B . @ = = = = = & s X.3.5.*.*.3.] C -.V X ^ 9.9.9.9.9.",
"9.9.9.9.9.^ O v s = = & = 8 ( ;.;.*.*.;.;.J P 5.n x ' 9.9.9.9.9.",
"9.9.9.9.9.^ n o / s = = i ) ;.*.*.*.;.4.} j o.*.o M ' 9.9.9.9.9.",
"9.9.9.9.9.^ ! X N O.p 6 E ;.4.;.3.3.4.} j E 5.N X _ ' 9.9.9.9.9.",
"9.9.9.9.9.^ _ m X _ =.R j J } %.@.} J C E 5.^ X N *.' 9.9.9.9.9.",
"9.9.9.9.9.^ _ ^ x o _ 5.@.P S C C S P #.5.^ X b ' *.*.9.9.9.9.9.",
"9.9.9.9.9.^ _ _ ^ c X N ;.4.;.:.=.1.8.*.N   b _ *.*.' 9.9.9.9.9.",
"9.9.9.9.9._ _ ' _ _ m X o m ^ 5.8.;.m o X N ' *.*.*.' 9.9.9.9.9.",
"9.9.9.9.9._ _ _ _ _ _ ^ m m ' 8.O.b x M _ *.*.*.*.*.*.9.9.9.9.9.",
"9.9.9.9.9._ _ _ _ _ ' =.8.8.8.*._ _ *.*.*.*.*.*.*.*.*.9.9.9.9.9.",
"9.9.9.9.9._ _ ' *.;.8.8.8.4.' _ ' *.*.*.*.*.*.*.*.*.*.9.9.9.9.9.",
"9.9.9.9.9._ ' *.5.8.8.8.=._ ' ' *.*.*.*.*.*.*.*.*.*.*.9.9.9.9.9.",
"9.9.9.9.9._ ' 5.! 5.7.' ' ' ' ' *.*.*.*.*.*.*.' *.*.' 9.9.9.9.9.",
"9.9.9.9.9.~ _ =.;.=.' ' ' ' ' ' *.*.*.*.*.*.;.*.=.*.^ 9.9.9.9.9.",
"9.9.9.9.9.9.V ^ ^ ^ _ ^ _ _ _ _ _ ' ' ' ' ' ' _ _ ^ 9.9.9.9.9.9.",
"9.9.9.9.9.9.9.9.9.9.9.9.9.9.9.9.9.9.9.9.9.9.9.9.9.9.9.9.9.9.9.9.",
"9.9.9.9.9.9.9.9.9.9.9.9.9.9.9.9.9.9.9.9.9.9.9.9.9.9.9.9.9.9.9.9."
};
