<svg width="512" height="512" viewBox="0 0 512 512" fill="none" xmlns="http://www.w3.org/2000/svg">
<rect width="512" height="512" rx="145" fill="white"/>
<g filter="url(#filter0_d_6_49)">
<path d="M118.684 129.012C119.712 117.678 129.214 109 140.594 109H315.99C327.543 109 337.127 117.935 337.936 129.459L355.347 377.459C356.241 390.185 346.158 401 333.401 401H118.087C105.152 401 95.0079 389.894 96.177 377.012L118.684 129.012Z" fill="#DCDCDC"/>
</g>
<path d="M242.6 373.4C237.667 373.4 233.3 372.367 229.5 370.3C225.767 368.167 222.833 365.2 220.7 361.4C218.633 357.533 217.6 353 217.6 347.8V346.6C217.6 341.4 218.633 336.9 220.7 333.1C222.767 329.233 225.667 326.267 229.4 324.2C233.133 322.067 237.467 321 242.4 321C247.267 321 251.5 322.1 255.1 324.3C258.7 326.433 261.5 329.433 263.5 333.3C265.5 337.1 266.5 341.533 266.5 346.6V350.9H230.4C230.533 354.3 231.8 357.067 234.2 359.2C236.6 361.333 239.533 362.4 243 362.4C246.533 362.4 249.133 361.633 250.8 360.1C252.467 358.567 253.733 356.867 254.6 355L264.9 360.4C263.967 362.133 262.6 364.033 260.8 366.1C259.067 368.1 256.733 369.833 253.8 371.3C250.867 372.7 247.133 373.4 242.6 373.4ZM230.5 341.5H253.7C253.433 338.633 252.267 336.333 250.2 334.6C248.2 332.867 245.567 332 242.3 332C238.9 332 236.2 332.867 234.2 334.6C232.2 336.333 230.967 338.633 230.5 341.5ZM292.815 373.4C286.348 373.4 281.048 372 276.915 369.2C272.782 366.4 270.282 362.4 269.415 357.2L281.015 354.2C281.482 356.533 282.248 358.367 283.315 359.7C284.448 361.033 285.815 362 287.415 362.6C289.082 363.133 290.882 363.4 292.815 363.4C295.748 363.4 297.915 362.9 299.315 361.9C300.715 360.833 301.415 359.533 301.415 358C301.415 356.467 300.748 355.3 299.415 354.5C298.082 353.633 295.948 352.933 293.015 352.4L290.215 351.9C286.748 351.233 283.582 350.333 280.715 349.2C277.848 348 275.548 346.367 273.815 344.3C272.082 342.233 271.215 339.567 271.215 336.3C271.215 331.367 273.015 327.6 276.615 325C280.215 322.333 284.948 321 290.815 321C296.348 321 300.948 322.233 304.615 324.7C308.282 327.167 310.682 330.4 311.815 334.4L300.115 338C299.582 335.467 298.482 333.667 296.815 332.6C295.215 331.533 293.215 331 290.815 331C288.415 331 286.582 331.433 285.315 332.3C284.048 333.1 283.415 334.233 283.415 335.7C283.415 337.3 284.082 338.5 285.415 339.3C286.748 340.033 288.548 340.6 290.815 341L293.615 341.5C297.348 342.167 300.715 343.067 303.715 344.2C306.782 345.267 309.182 346.833 310.915 348.9C312.715 350.9 313.615 353.633 313.615 357.1C313.615 362.3 311.715 366.333 307.915 369.2C304.182 372 299.148 373.4 292.815 373.4ZM337.18 372C333.913 372 331.246 371 329.18 369C327.18 366.933 326.18 364.2 326.18 360.8V332.8H313.78V322.4H326.18V307H338.78V322.4H352.38V332.8H338.78V358.6C338.78 360.6 339.713 361.6 341.58 361.6H351.18V372H337.18ZM379.127 373.4C374.194 373.4 369.827 372.367 366.027 370.3C362.294 368.167 359.361 365.2 357.227 361.4C355.161 357.533 354.127 353 354.127 347.8V346.6C354.127 341.4 355.161 336.9 357.227 333.1C359.294 329.233 362.194 326.267 365.927 324.2C369.661 322.067 373.994 321 378.927 321C383.794 321 388.027 322.1 391.627 324.3C395.227 326.433 398.027 329.433 400.027 333.3C402.027 337.1 403.027 341.533 403.027 346.6V350.9H366.927C367.061 354.3 368.327 357.067 370.727 359.2C373.127 361.333 376.061 362.4 379.527 362.4C383.061 362.4 385.661 361.633 387.327 360.1C388.994 358.567 390.261 356.867 391.127 355L401.427 360.4C400.494 362.133 399.127 364.033 397.327 366.1C395.594 368.1 393.261 369.833 390.327 371.3C387.394 372.7 383.661 373.4 379.127 373.4ZM367.027 341.5H390.227C389.961 338.633 388.794 336.333 386.727 334.6C384.727 332.867 382.094 332 378.827 332C375.427 332 372.727 332.867 370.727 334.6C368.727 336.333 367.494 338.633 367.027 341.5ZM408.742 372V322.4H421.142V328H422.942C423.676 326 424.876 324.533 426.542 323.6C428.276 322.667 430.276 322.2 432.542 322.2H438.542V333.4H432.342C429.142 333.4 426.509 334.267 424.442 336C422.376 337.667 421.342 340.267 421.342 343.8V372H408.742Z" fill="black"/>
<g filter="url(#filter1_d_6_49)">
<ellipse cx="248" cy="177.5" rx="80" ry="55.5" fill="#E7E6E6"/>
</g>
<defs>
<filter id="filter0_d_6_49" x="96.0852" y="109" width="259.317" height="303" filterUnits="userSpaceOnUse" color-interpolation-filters="sRGB">
<feFlood flood-opacity="0" result="BackgroundImageFix"/>
<feColorMatrix in="SourceAlpha" type="matrix" values="0 0 0 0 0 0 0 0 0 0 0 0 0 0 0 0 0 0 127 0" result="hardAlpha"/>
<feOffset dy="11"/>
<feComposite in2="hardAlpha" operator="out"/>
<feColorMatrix type="matrix" values="0 0 0 0 0.74375 0 0 0 0 0.74375 0 0 0 0 0.74375 0 0 0 1 0"/>
<feBlend mode="normal" in2="BackgroundImageFix" result="effect1_dropShadow_6_49"/>
<feBlend mode="normal" in="SourceGraphic" in2="effect1_dropShadow_6_49" result="shape"/>
</filter>
<filter id="filter1_d_6_49" x="168" y="122" width="160" height="118" filterUnits="userSpaceOnUse" color-interpolation-filters="sRGB">
<feFlood flood-opacity="0" result="BackgroundImageFix"/>
<feColorMatrix in="SourceAlpha" type="matrix" values="0 0 0 0 0 0 0 0 0 0 0 0 0 0 0 0 0 0 127 0" result="hardAlpha"/>
<feOffset dy="7"/>
<feComposite in2="hardAlpha" operator="out"/>
<feColorMatrix type="matrix" values="0 0 0 0 0 0 0 0 0 0 0 0 0 0 0 0 0 0 0.25 0"/>
<feBlend mode="normal" in2="BackgroundImageFix" result="effect1_dropShadow_6_49"/>
<feBlend mode="normal" in="SourceGraphic" in2="effect1_dropShadow_6_49" result="shape"/>
</filter>
</defs>
</svg>
