<svg width="512" height="512" viewBox="0 0 512 512" fill="none" xmlns="http://www.w3.org/2000/svg">
<rect width="512" height="512" rx="145" fill="#60EC66"/>
<path d="M91.2119 239.018C86.0112 217.614 102.224 196.99 124.251 196.99H388.238C410.11 196.99 426.293 217.342 421.364 238.652L388.846 379.239C384.546 397.833 367.985 411 348.901 411H165.231C146.316 411 129.856 398.06 125.39 379.68L91.2119 239.018Z" fill="white"/>
<rect x="191" y="111" width="130" height="176.197" rx="65" stroke="white" stroke-width="22"/>
<rect x="187" y="266.57" width="59" height="62.2" rx="9" fill="#FF6A6A"/>
<path d="M262.67 368.226C257.584 371.135 251.325 366.601 252.306 360.718L260.038 314.345C260.784 309.871 265.465 307.38 269.595 309.258L310.454 327.842C315.71 330.233 316.184 337.622 311.261 340.437L262.67 368.226Z" fill="#72CEFF"/>
<rect x="265" y="244.43" width="59" height="62.2" rx="29.5" fill="#9A6AFF"/>
</svg>
